<svg xmlns="http://www.w3.org/2000/svg" viewBox="0 0 500 500"><g id="freepik--background-simple--inject-62"><path d="M414.22,100.56C405.33,85.43,392.89,73.05,377.16,63c-52.37-33.63-123.55-45.74-184.74-36.6-43.71,6.53-72.85,36.24-91.5,75-22,45.75-42,91.26-67.1,135.69C5,288-7.87,341,54.67,385c54.12,38.08,122,28.2,184,27,20.56-.4,41.27.28,61.5,4.26,40.2,7.9,79.24,36,118.78,9.76,30.05-19.95,47.75-57.64,56.33-91.78,5.11-20.34,9.13-42.79,7.23-64.39-2.07-23.66-13-41.48-24.21-61.63a359.15,359.15,0,0,1-32.78-80.48A110.36,110.36,0,0,0,414.22,100.56Z" style="fill:#7E57C2"></path><path d="M414.22,100.56C405.33,85.43,392.89,73.05,377.16,63c-52.37-33.63-123.55-45.74-184.74-36.6-43.71,6.53-72.85,36.24-91.5,75-22,45.75-42,91.26-67.1,135.69C5,288-7.87,341,54.67,385c54.12,38.08,122,28.2,184,27,20.56-.4,41.27.28,61.5,4.26,40.2,7.9,79.24,36,118.78,9.76,30.05-19.95,47.75-57.64,56.33-91.78,5.11-20.34,9.13-42.79,7.23-64.39-2.07-23.66-13-41.48-24.21-61.63a359.15,359.15,0,0,1-32.78-80.48A110.36,110.36,0,0,0,414.22,100.56Z" style="fill:#fff;opacity:0.7000000000000001"></path></g><g id="freepik--Floor--inject-62"><line x1="34" y1="455.04" x2="18" y2="455.04" style="fill:none;stroke:#263238;stroke-linecap:round;stroke-linejoin:round"></line><line x1="484.33" y1="455.04" x2="42" y2="455.04" style="fill:none;stroke:#263238;stroke-linecap:round;stroke-linejoin:round"></line></g><g id="freepik--Plant--inject-62"><path d="M456,305.36s-11.17-6.21-12,7.86-2.9,105.55-2.9,105.55" style="fill:none;stroke:#263238;stroke-linecap:round;stroke-miterlimit:10;stroke-width:2px"></path><path d="M438.15,314.46s9.11,20.29,5,103.07" style="fill:none;stroke:#263238;stroke-linecap:round;stroke-miterlimit:10;stroke-width:2px"></path><path d="M447.1,308.19s-4.27,2.74-6.71-.39,1.65-8.88-1.95-11.34-9.79,1.3-9.79,1.3,4.77,1.4,4.62,4-2.46,3.59-2.76,2.45-2.59-6.88-6.47-4.49a9.6,9.6,0,0,0-4.47,6.09s9-1,9.58,2.44-3.71-.6-7.43-.82-7.13.33-6.89,2.59a28.72,28.72,0,0,1-.35,6,11.12,11.12,0,0,1,7.26-2.56c4.1.24,3.94,2.85.22,2.63s-6.93,3.33-6.93,3.33,3.4,5.81,7.71,8.68,5.88,1.84,6.38-.37-.65-7.89,2-7.74-4.32,9.84-1,10.41,6-.39,6.88-2.58l.88-2.19s-1.16-5.68-.66-7.9,1.12.07,1.71,2.72,1,9,2.1,8.73,4.78-5,5.64-6.78-4.8-7.38-4.74-8.5,4.43,1,5.11,2.17a28.83,28.83,0,0,1,1.34,2.7s2.72-1.71,2.65-6.95S447.1,308.19,447.1,308.19Z" style="fill:#7E57C2"></path><path d="M447.1,308.19s-4.27,2.74-6.71-.39,1.65-8.88-1.95-11.34-9.79,1.3-9.79,1.3,4.77,1.4,4.62,4-2.46,3.59-2.76,2.45-2.59-6.88-6.47-4.49a9.6,9.6,0,0,0-4.47,6.09s9-1,9.58,2.44-3.71-.6-7.43-.82-7.13.33-6.89,2.59a28.72,28.72,0,0,1-.35,6,11.12,11.12,0,0,1,7.26-2.56c4.1.24,3.94,2.85.22,2.63s-6.93,3.33-6.93,3.33,3.4,5.81,7.71,8.68,5.88,1.84,6.38-.37-.65-7.89,2-7.74-4.32,9.84-1,10.41,6-.39,6.88-2.58l.88-2.19s-1.16-5.68-.66-7.9,1.12.07,1.71,2.72,1,9,2.1,8.73,4.78-5,5.64-6.78-4.8-7.38-4.74-8.5,4.43,1,5.11,2.17a28.83,28.83,0,0,1,1.34,2.7s2.72-1.71,2.65-6.95S447.1,308.19,447.1,308.19Z" style="fill:#263238;opacity:0.30000000000000004"></path><path d="M425.43,320.48c2.79-3.45,6.89-8.11,10.34-10.34" style="fill:none;stroke:#263238;stroke-linecap:round;stroke-miterlimit:10"></path><path d="M422.2,324.67s.71-1,1.87-2.48" style="fill:none;stroke:#263238;stroke-linecap:round;stroke-miterlimit:10"></path><path d="M437.59,311s4.14,5.85,4.9,11.88" style="fill:none;stroke:#263238;stroke-linecap:round;stroke-miterlimit:10"></path><path d="M432.9,314.46s1.16-.68.72,6.77" style="fill:none;stroke:#263238;stroke-linecap:round;stroke-miterlimit:10"></path><path d="M435.92,307.53s2.37-2.1,1.12-6.29" style="fill:none;stroke:#263238;stroke-linecap:round;stroke-miterlimit:10"></path><line x1="432.72" y1="311.08" x2="431.03" y2="307.99" style="fill:none;stroke:#263238;stroke-linecap:round;stroke-miterlimit:10"></line><path d="M429.17,314.24s-5.37-4.06-8.72-4.25" style="fill:none;stroke:#263238;stroke-linecap:round;stroke-miterlimit:10"></path><path d="M462.34,297.15s-.17,6.15-5,6.44-7.77-7.69-12.68-5.77-5.38,10.69-5.38,10.69,4.66-3.83,7.17-1.89,1.92,4.9.57,4.43-8.65-2.1-8.9,3.41a11.63,11.63,0,0,0,3.05,8.64s5.19-9.7,9-7.93-3.11,3.3-5.87,6.88-4.53,7.36-2.11,8.65a35.43,35.43,0,0,1,5.73,4.42,13.41,13.41,0,0,1,2.38-9c3-3.94,5.54-2,2.78,1.57s-1.38,9.21-1.38,9.21,8.13.56,13.95-1.81,5.84-4.62,4-6.64-8.35-4.72-6.41-7.23,6.9,11,9.75,8.09,3.7-6.28,2.1-8.65l-1.6-2.38s-6.47-2.7-8.34-4.72.82-1.07,3.88.14,9.7,5.2,10.17,3.85-1.7-8.17-2.94-10.26-10.67-.23-11.74-1.06,4-3.75,5.65-3.63a34.29,34.29,0,0,1,3.61.5s.15-3.89-5.14-7.4S462.34,297.15,462.34,297.15Z" style="fill:#7E57C2"></path><path d="M462.34,297.15s-.17,6.15-5,6.44-7.77-7.69-12.68-5.77-5.38,10.69-5.38,10.69,4.66-3.83,7.17-1.89,1.92,4.9.57,4.43-8.65-2.1-8.9,3.41a11.63,11.63,0,0,0,3.05,8.64s5.19-9.7,9-7.93-3.11,3.3-5.87,6.88-4.53,7.36-2.11,8.65a35.43,35.43,0,0,1,5.73,4.42,13.41,13.41,0,0,1,2.38-9c3-3.94,5.54-2,2.78,1.57s-1.38,9.21-1.38,9.21,8.13.56,13.95-1.81,5.84-4.62,4-6.64-8.35-4.72-6.41-7.23,6.9,11,9.75,8.09,3.7-6.28,2.1-8.65l-1.6-2.38s-6.47-2.7-8.34-4.72.82-1.07,3.88.14,9.7,5.2,10.17,3.85-1.7-8.17-2.94-10.26-10.67-.23-11.74-1.06,4-3.75,5.65-3.63a34.29,34.29,0,0,1,3.61.5s.15-3.89-5.14-7.4S462.34,297.15,462.34,297.15Z" style="fill:#263238;opacity:0.2"></path><path d="M459.86,327.22c-1.55-5.14-3.42-12.43-3.3-17.4" style="fill:none;stroke:#263238;stroke-linecap:round;stroke-miterlimit:10"></path><path d="M461.86,333.31s-.51-1.39-1.21-3.57" style="fill:none;stroke:#263238;stroke-linecap:round;stroke-miterlimit:10"></path><path d="M458.66,308.58s8.68-.15,15.24,3.19" style="fill:none;stroke:#263238;stroke-linecap:round;stroke-miterlimit:10"></path><path d="M458.93,315.64s.11-1.62,7.27,3.9" style="fill:none;stroke:#263238;stroke-linecap:round;stroke-miterlimit:10"></path><path d="M454.06,307.89s-.5-3.8-5.54-5.41" style="fill:none;stroke:#263238;stroke-linecap:round;stroke-miterlimit:10"></path><line x1="455.43" y1="313.52" x2="451.19" y2="313.1" style="fill:none;stroke:#263238;stroke-linecap:round;stroke-miterlimit:10"></line><path d="M456.17,319.22s-7.72,2.61-10.21,5.84" style="fill:none;stroke:#263238;stroke-linecap:round;stroke-miterlimit:10"></path><path d="M410.84,338.06s24.42,16.14,24,78.64" style="fill:none;stroke:#263238;stroke-linecap:round;stroke-miterlimit:10;stroke-width:2px"></path><path d="M441,333.79s-.78,7.08-6.34,7-8.24-9.61-14.09-7.85-7.22,11.82-7.22,11.82,5.74-4,8.45-1.51,1.76,5.85.25,5.18-9.79-3.25-10.6,3.09a13.46,13.46,0,0,0,2.7,10.25s6.91-10.7,11.1-8.31-3.91,3.52-7.43,7.4-5.92,8.06-3.25,9.78a41.29,41.29,0,0,1,6.2,5.64s-.28-5.92,3.59-10.17,6.59-1.8,3.06,2.07-2.46,10.5-2.46,10.5,9.33,1.41,16.26-.77,7.19-4.79,5.22-7.29-9.19-6.23-6.72-8.94S446.6,375,450.15,371.9s4.87-6.9,3.25-9.79l-1.62-2.89s-7.22-3.73-9.19-6.23,1.06-1.17,4.47.53,10.71,6.9,11.37,5.39-1.19-9.58-2.42-12.12-12.29-1.27-13.45-2.33,5-3.94,6.87-3.65a40.58,40.58,0,0,1,4.12.91s.53-4.47-5.24-9S441,333.79,441,333.79Z" style="fill:#7E57C2"></path><path d="M441,333.79s-.78,7.08-6.34,7-8.24-9.61-14.09-7.85-7.22,11.82-7.22,11.82,5.74-4,8.45-1.51,1.76,5.85.25,5.18-9.79-3.25-10.6,3.09a13.46,13.46,0,0,0,2.7,10.25s6.91-10.7,11.1-8.31-3.91,3.52-7.43,7.4-5.92,8.06-3.25,9.78a41.29,41.29,0,0,1,6.2,5.64s-.28-5.92,3.59-10.17,6.59-1.8,3.06,2.07-2.46,10.5-2.46,10.5,9.33,1.41,16.26-.77,7.19-4.79,5.22-7.29-9.19-6.23-6.72-8.94S446.6,375,450.15,371.9s4.87-6.9,3.25-9.79l-1.62-2.89s-7.22-3.73-9.19-6.23,1.06-1.17,4.47.53,10.71,6.9,11.37,5.39-1.19-9.58-2.42-12.12-12.29-1.27-13.45-2.33,5-3.94,6.87-3.65a40.58,40.58,0,0,1,4.12.91s.53-4.47-5.24-9S441,333.79,441,333.79Z" style="fill:#263238;opacity:0.30000000000000004"></path><path d="M435.25,368.26c-1.3-6.08-2.77-14.67-2.16-20.38" style="fill:none;stroke:#263238;stroke-linecap:round;stroke-miterlimit:10"></path><path d="M437,375.48s-.45-1.66-1.06-4.23" style="fill:none;stroke:#263238;stroke-linecap:round;stroke-miterlimit:10"></path><path d="M435.62,346.64s10,.64,17.29,5.12" style="fill:none;stroke:#263238;stroke-linecap:round;stroke-miterlimit:10"></path><path d="M435.27,354.81s.28-1.86,8,5.18" style="fill:none;stroke:#263238;stroke-linecap:round;stroke-miterlimit:10"></path><path d="M430.38,345.41s-.21-4.44-5.88-6.76" style="fill:none;stroke:#263238;stroke-linecap:round;stroke-miterlimit:10"></path><line x1="431.43" y1="352.03" x2="426.57" y2="351.15" style="fill:none;stroke:#263238;stroke-linecap:round;stroke-miterlimit:10"></line><path d="M431.75,358.68s-9.16,2.29-12.33,5.77" style="fill:none;stroke:#263238;stroke-linecap:round;stroke-miterlimit:10"></path><path d="M420.36,387.31s15.72,12,17.38,29.81l-3.31-59.61" style="fill:none;stroke:#263238;stroke-linecap:round;stroke-miterlimit:10;stroke-width:2px"></path><path d="M458.44,378.62c-20.7-3.72-20.7,38.5-20.7,38.5" style="fill:none;stroke:#263238;stroke-linecap:round;stroke-miterlimit:10;stroke-width:2px"></path><path d="M440.22,416.7s-12-87.33,22.77-87.33" style="fill:none;stroke:#263238;stroke-linecap:round;stroke-miterlimit:10;stroke-width:2px"></path><path d="M450.55,376.11c-2.83-3.18-8.83-3.18-12.37,4.95s-.35,6.71-.35,6.71,6.71-2.12,10.95-3.53,9.9-4.95,10.25-2.83-2.83,4.24-6.71,4.95-14.14,3.53-13.08,5.65,3.54,8.48,3.54,8.48a88.56,88.56,0,0,1,9.54-7.06c4.59-2.83,7.42-1.77,4.94,1.41s-9.54,6.71-8.12,11,9.89,9.55,9.89,9.55,1.06-8.84,3.53-11.67,2.48.36,1.77,5.3a57.34,57.34,0,0,0-.71,6.37l9.9,3.53a70.23,70.23,0,0,1,5.3-7.07l1.77-1.77s-7.78-6.71-8.13-10.95,5.3,0,7.07.71,4.59,5.65,4.59,5.65,1.77-8.13,2.12-10.95l.35-2.83s-7.42-2.83-10.24-2.83-4.24,2.12-4.24-.7,2.82-4.6,6-4.24a54.72,54.72,0,0,1,8.48,2.12s2.12-1.77,1.42-7.07-2.48-5.3-6.72-3.89-7.06,4.6-10.24,4.6-1.42-3.89.7-4.95,7.42-3.18,8.48-3.54-5.65-5.3-9.18-6-8.11,1.78-7.78,5.3C464,377.88,453.38,379.29,450.55,376.11Z" style="fill:#7E57C2"></path><path d="M473.3,412.5c.1,1.06.18,2.13.22,3.19" style="fill:none;stroke:#263238;stroke-linecap:round;stroke-miterlimit:10"></path><path d="M466.2,387.13A93.64,93.64,0,0,1,472.85,409" style="fill:none;stroke:#263238;stroke-linecap:round;stroke-miterlimit:10"></path><path d="M464.93,384.29c-1.75-3.76-3.07-6.06-3.07-6.06a10.41,10.41,0,0,0,4.59-4.24,11.78,11.78,0,0,1,3.54-4.24" style="fill:none;stroke:#263238;stroke-linecap:round;stroke-miterlimit:10"></path><path d="M449.49,390.25s12.72-5.3,12.72-4.24" style="fill:none;stroke:#263238;stroke-linecap:round;stroke-miterlimit:10"></path><path d="M469.28,383.53s5.65-2.82,10.6-2.82" style="fill:none;stroke:#263238;stroke-linecap:round;stroke-miterlimit:10"></path><path d="M467.16,392a49.49,49.49,0,0,0-6.72,6.72,30.43,30.43,0,0,0-4.94,8.12" style="fill:none;stroke:#263238;stroke-linecap:round;stroke-miterlimit:10"></path><path d="M471.05,393.43s7.42-2.12,11.3,1.41" style="fill:none;stroke:#263238;stroke-linecap:round;stroke-miterlimit:10"></path><path d="M484.49,345.68c-3.85-2.28-8.1-2.33-10.19-4.73s2-3.61,4.2-2.71,7.27,3.52,8.23,4.09.29-7.74-1.49-10.88-6.66-4.95-9.1-2.39c-5.14,5.4-13.16-1.68-12.61-5.9s-3.39-8.76-11.84-6.1-5.3,4.14-5.3,4.14,6,3.68,9.85,5.95,10.22,4.23,8.85,5.89-5.06.64-8.14-1.83S445,322.85,444.11,325s-4.09,8.23-4.09,8.23a91,91,0,0,1,11.6,2.57c5.14,1.62,6.19,4.45,2.17,4.67s-11.32-2.81-13.6,1-.72,13.73-.72,13.73,7.37-5,11.13-5,1.35,2.1-2.85,4.81a57.31,57.31,0,0,0-5.27,3.64l3.82,9.78a71.68,71.68,0,0,1,8.81-.63l2.5.18s0-10.27,2.94-13.32,3.48,4,4.1,5.8-1.26,7.18-1.26,7.18,7.3-4,9.66-5.58l2.37-1.59s-2.73-7.46-4.58-9.59-4.38-1.81-2.25-3.67,5.32-.87,7.14,1.76a54.83,54.83,0,0,1,4,7.79s2.72.45,6.26-3.56S488.33,348,484.49,345.68ZM451.05,357c-2.83-1.41,3.88-4.24,3.88-4.24C457.41,352.4,453.87,358.4,451.05,357Zm4.76-13.19c-1.21-.6,2.41-1.81,2.41-1.81C463.44,343,457,344.4,455.81,343.8Z" style="fill:#7E57C2"></path><path d="M451,364.19c-.73.78-1.49,1.53-2.27,2.26" style="fill:none;stroke:#263238;stroke-linecap:round;stroke-miterlimit:10"></path><path d="M465.47,342.2a93.76,93.76,0,0,1-12.17,19.38" style="fill:none;stroke:#263238;stroke-linecap:round;stroke-miterlimit:10"></path><path d="M466.78,339.38c1.7-3.79,2.56-6.29,2.56-6.29a10.53,10.53,0,0,0,6.22.69,11.7,11.7,0,0,1,5.52-.11" style="fill:none;stroke:#263238;stroke-linecap:round;stroke-miterlimit:10"></path><path d="M452.16,331.62s12.35,6.14,11.55,6.83" style="fill:none;stroke:#263238;stroke-linecap:round;stroke-miterlimit:10"></path><path d="M470.21,342.17s5.84,2.41,9.08,6.15" style="fill:none;stroke:#263238;stroke-linecap:round;stroke-miterlimit:10"></path><path d="M462.41,346.13a49,49,0,0,0-9.47-.67,30.41,30.41,0,0,0-9.38,1.59" style="fill:none;stroke:#263238;stroke-linecap:round;stroke-miterlimit:10"></path><path d="M463.89,350s6.47,4.21,6.35,9.46" style="fill:none;stroke:#263238;stroke-linecap:round;stroke-miterlimit:10"></path><path d="M429.58,394.64c-3.1-1.83-6.52-1.87-8.2-3.8s1.62-2.91,3.38-2.18,5.85,2.83,6.62,3.29.24-6.23-1.2-8.75-5.36-4-7.32-1.93c-4.13,4.34-10.59-1.35-10.15-4.75s-2.72-7-9.53-4.91-4.26,3.33-4.26,3.33,4.83,3,7.92,4.79,8.23,3.41,7.13,4.74-4.07.52-6.55-1.47-9.6-6.73-10.33-5-3.29,6.62-3.29,6.62a72.45,72.45,0,0,1,9.32,2.07c4.15,1.3,5,3.58,1.76,3.75s-9.12-2.26-10.95.84-.58,11.05-.58,11.05,5.93-4,8.95-4,1.09,1.69-2.29,3.87a45.84,45.84,0,0,0-4.23,2.93l3.07,7.88a56.77,56.77,0,0,1,7.09-.51l2,.14s0-8.27,2.36-10.72,2.8,3.22,3.3,4.67-1,5.77-1,5.77,5.87-3.21,7.78-4.49l1.9-1.27s-2.2-6-3.69-7.72-3.52-1.46-1.8-3,4.28-.71,5.74,1.41a45,45,0,0,1,3.19,6.27s2.19.36,5-2.87S432.67,396.47,429.58,394.64Zm-26.91,9.11c-2.28-1.14,3.12-3.42,3.12-3.42C407.78,400.05,404.94,404.88,402.67,403.75Zm3.83-10.62c-1-.49,1.94-1.46,1.94-1.46C412.64,392.48,407.47,393.61,406.5,393.13Z" style="fill:#7E57C2"></path><path d="M402.61,409.54c-.6.62-1.2,1.23-1.83,1.82" style="fill:none;stroke:#263238;stroke-linecap:round;stroke-miterlimit:10"></path><path d="M414.28,391.84a75.56,75.56,0,0,1-9.8,15.6" style="fill:none;stroke:#263238;stroke-linecap:round;stroke-miterlimit:10"></path><path d="M415.33,389.57c1.36-3.05,2.06-5.06,2.06-5.06a8.37,8.37,0,0,0,5,.55,9.5,9.5,0,0,1,4.44-.09" style="fill:none;stroke:#263238;stroke-linecap:round;stroke-miterlimit:10"></path><path d="M403.57,383.33s9.93,4.94,9.28,5.5" style="fill:none;stroke:#263238;stroke-linecap:round;stroke-miterlimit:10"></path><path d="M418.09,391.82s4.7,1.94,7.31,4.95" style="fill:none;stroke:#263238;stroke-linecap:round;stroke-miterlimit:10"></path><path d="M411.81,395a39.22,39.22,0,0,0-7.62-.54,24.36,24.36,0,0,0-7.55,1.29" style="fill:none;stroke:#263238;stroke-linecap:round;stroke-miterlimit:10"></path><path d="M413,398.11s5.21,3.39,5.11,7.62" style="fill:none;stroke:#263238;stroke-linecap:round;stroke-miterlimit:10"></path><path d="M417,336.29s-3.88,2.83-6.36,0,1.06-8.48-2.47-10.6-9.19,1.77-9.19,1.77,4.6,1.06,4.6,3.53-2.12,3.53-2.48,2.47-2.82-6.36-6.36-3.88a9.11,9.11,0,0,0-3.89,6s8.49-1.41,9.19,1.77-3.53-.35-7.07-.35-6.71.7-6.36,2.82a27.4,27.4,0,0,1,0,5.66,10.51,10.51,0,0,1,6.72-2.83c3.88,0,3.88,2.48.35,2.48s-6.36,3.53-6.36,3.53,3.53,5.3,7.77,7.77,5.66,1.42,6-.7-1.06-7.42,1.42-7.42-3.54,9.54-.36,9.89,5.66-.71,6.36-2.83l.71-2.12s-1.41-5.3-1.06-7.42,1.06,0,1.77,2.48,1.41,8.48,2.47,8.12,4.24-4.94,4.95-6.71-4.95-6.72-4.95-7.78,4.24.71,4.95,1.77a28.52,28.52,0,0,1,1.41,2.48s2.47-1.77,2.12-6.72S417,336.29,417,336.29Z" style="fill:#7E57C2"></path><path d="M397.16,349.11c2.44-3.41,6.06-8.05,9.19-10.35" style="fill:none;stroke:#263238;stroke-linecap:round;stroke-miterlimit:10"></path><path d="M394.34,353.25s.62-1,1.63-2.45" style="fill:none;stroke:#263238;stroke-linecap:round;stroke-miterlimit:10"></path><path d="M408.12,339.47s4.24,5.3,5.3,11" style="fill:none;stroke:#263238;stroke-linecap:round;stroke-miterlimit:10"></path><path d="M403.88,343s1.06-.7,1.06,6.37" style="fill:none;stroke:#263238;stroke-linecap:round;stroke-miterlimit:10"></path><path d="M406.35,336.29s2.12-2.12.71-6" style="fill:none;stroke:#263238;stroke-linecap:round;stroke-miterlimit:10"></path><line x1="403.53" y1="339.82" x2="401.76" y2="337" style="fill:none;stroke:#263238;stroke-linecap:round;stroke-miterlimit:10"></line><path d="M400.35,343s-5.31-3.53-8.49-3.53" style="fill:none;stroke:#263238;stroke-linecap:round;stroke-miterlimit:10"></path><rect x="425.32" y="415.46" width="27.32" height="39.32" style="fill:#263238;stroke:#263238;stroke-linecap:round;stroke-miterlimit:10;stroke-width:2px"></rect></g><g id="freepik--Graphics--inject-62"><g style="opacity:0.30000000000000004"><path d="M345.66,80.23a2.58,2.58,0,0,0-3.11-1.14l-10.22,3.66a22.48,22.48,0,0,0-12.61-7.31l-1.48-11.1a2.59,2.59,0,0,0-5.11-.12l-2,11.22a22.4,22.4,0,0,0-12.23,6.85L288.21,77.9a2.58,2.58,0,0,0-2.66,4.36l8.77,7.45a22.45,22.45,0,0,0-.46,14.11l-8.93,6.87a2.58,2.58,0,0,0,2.45,4.48l10.44-3.73a22.46,22.46,0,0,0,12.46,7.89l1.41,10.59a2.59,2.59,0,0,0,5.11.12l1.88-10.36a22.47,22.47,0,0,0,13.46-7.27l9.58,4a2.58,2.58,0,0,0,2.66-4.36l-7.94-6.73a22.42,22.42,0,0,0,.14-15.21L345,83.57A2.59,2.59,0,0,0,345.66,80.23Zm-30.27,34.25a17,17,0,1,1,17-17A17,17,0,0,1,315.39,114.48Z" style="fill:none;stroke:#000;stroke-linecap:round;stroke-linejoin:round"></path><path d="M347.65,125.15a1.19,1.19,0,0,0-1.42-.53l-4.68,1.68a10.15,10.15,0,0,0-5.76-3.34l-.67-5.08a1.19,1.19,0,0,0-2.34,0l-.93,5.13a10.16,10.16,0,0,0-5.59,3.13l-4.87-2a1.18,1.18,0,0,0-1.22,2l4,3.41a10.27,10.27,0,0,0-.21,6.45l-4.08,3.14a1.17,1.17,0,0,0-.3,1.52,1.18,1.18,0,0,0,1.42.53l4.77-1.71a10.24,10.24,0,0,0,5.7,3.6l.64,4.85a1.18,1.18,0,0,0,1.17,1,1.2,1.2,0,0,0,1.17-1l.86-4.74a10.2,10.2,0,0,0,6.15-3.32l4.38,1.81a1.18,1.18,0,0,0,1.47-.5,1.17,1.17,0,0,0-.26-1.49l-3.62-3.08a10.37,10.37,0,0,0,.06-7l3.85-3A1.18,1.18,0,0,0,347.65,125.15ZM333.81,140.8a7.78,7.78,0,1,1,7.78-7.77A7.77,7.77,0,0,1,333.81,140.8Z" style="fill:none;stroke:#000;stroke-linecap:round;stroke-linejoin:round"></path></g><g style="opacity:0.30000000000000004"><path d="M421.19,59.07A5.22,5.22,0,0,0,426.46,54v0a10.74,10.74,0,0,0-10.74-10.75,11.08,11.08,0,0,0-1.93.18,20.06,20.06,0,0,0-38.22-7.26,13.65,13.65,0,0,0-9.11.92,14.71,14.71,0,0,0-8.65,12.17A14.34,14.34,0,0,0,359,56a5.21,5.21,0,0,0,4.79,3.07Z" style="fill:none;stroke:#000;stroke-linecap:round;stroke-linejoin:round"></path><polygon points="401 71.74 401 59 384.18 59 384.18 71.74 380.18 71.74 392.59 87.03 405 71.74 401 71.74" style="fill:none;stroke:#000;stroke-linecap:round;stroke-linejoin:round"></polygon></g><g style="opacity:0.30000000000000004"><path d="M320.89,202.33h-44a7.66,7.66,0,0,1-7.67-7.66h0a7.66,7.66,0,0,1,7.67-7.67h44a7.66,7.66,0,0,1,7.66,7.67h0A7.66,7.66,0,0,1,320.89,202.33Z" style="fill:none;stroke:#000;stroke-linecap:round;stroke-linejoin:round"></path><path d="M307.22,187H276.89a7.66,7.66,0,0,0-7.67,7.67h0a7.66,7.66,0,0,0,7.67,7.66h30.33Z" style="fill:none;stroke:#000;stroke-linecap:round;stroke-linejoin:round"></path></g><rect x="405.04" y="145.74" width="46.26" height="39.65" style="fill:none;stroke:#000;stroke-linecap:round;stroke-linejoin:round;opacity:0.30000000000000004"></rect><g style="opacity:0.30000000000000004"><rect x="407" y="160.3" width="8.1" height="8.32" style="fill:none;stroke:#000;stroke-linecap:round;stroke-linejoin:round"></rect><rect x="418.41" y="160.3" width="8.1" height="8.32" style="fill:none;stroke:#000;stroke-linecap:round;stroke-linejoin:round"></rect><rect x="429.82" y="160.3" width="8.1" height="8.32" style="fill:none;stroke:#000;stroke-linecap:round;stroke-linejoin:round"></rect><rect x="441.24" y="160.3" width="8.1" height="8.32" style="fill:none;stroke:#000;stroke-linecap:round;stroke-linejoin:round"></rect><rect x="407" y="172.4" width="8.1" height="8.32" style="fill:none;stroke:#000;stroke-linecap:round;stroke-linejoin:round"></rect><rect x="418.41" y="172.4" width="8.1" height="8.32" style="fill:none;stroke:#000;stroke-linecap:round;stroke-linejoin:round"></rect><rect x="429.82" y="172.4" width="8.1" height="8.32" style="fill:none;stroke:#000;stroke-linecap:round;stroke-linejoin:round"></rect><rect x="441.24" y="172.4" width="8.1" height="8.32" style="fill:none;stroke:#000;stroke-linecap:round;stroke-linejoin:round"></rect></g><rect x="406.62" y="149.72" width="43.09" height="5.29" style="fill:none;stroke:#000;stroke-linecap:round;stroke-linejoin:round;opacity:0.30000000000000004"></rect></g><g id="freepik--Table--inject-62"><rect x="297.55" y="295.12" width="3" height="150.16" style="fill:#263238;stroke:#263238;stroke-linecap:round;stroke-linejoin:round"></rect><rect x="294.89" y="346.45" width="8.33" height="98.82" style="fill:#263238;stroke:#263238;stroke-linecap:round;stroke-linejoin:round"></rect><rect x="336.89" y="295.12" width="3" height="150.16" style="fill:#263238;stroke:#263238;stroke-linecap:round;stroke-linejoin:round"></rect><rect x="334.22" y="346.45" width="8.33" height="98.82" style="fill:#263238;stroke:#263238;stroke-linecap:round;stroke-linejoin:round"></rect><rect x="286.22" y="292.79" width="65.25" height="3.25" style="fill:#fff;stroke:#263238;stroke-linecap:round;stroke-linejoin:round"></rect><rect x="284.22" y="444.28" width="66" height="3.67" style="fill:#fff;stroke:#263238;stroke-linecap:round;stroke-linejoin:round"></rect><circle cx="340.75" cy="450.45" r="4.59" style="fill:#263238;stroke:#263238;stroke-linecap:round;stroke-linejoin:round"></circle><circle cx="293.3" cy="450.45" r="4.59" style="fill:#263238;stroke:#263238;stroke-linecap:round;stroke-linejoin:round"></circle></g><g id="freepik--Character--inject-62"><path d="M371,439.65s-4.26,5.14-8.15,6.77-8.53,2.51-10.54,3.64-1.5,3.89-.88,4.64,44.41,0,44.41,0a19.29,19.29,0,0,0,.88-6.39,55.09,55.09,0,0,0-.63-6.53Z" style="fill:#fff;stroke:#263238;stroke-linecap:round;stroke-linejoin:round"></path><path d="M351.41,454.7c.63.76,44.41,0,44.41,0a17,17,0,0,0,.54-2.16l-45.46.74A3,3,0,0,0,351.41,454.7Z" style="fill:#fff;stroke:#263238;stroke-linecap:round;stroke-linejoin:round"></path><path d="M368.33,339.45s1,33.85,2.51,43.12,2.26,36.1,2.76,43.87-1,9.53-1,9.53-2.5-.5-2.5,1.25v3.51s3.76,5.27,14.79,5.77,12.53-.25,12.53-.25.75-7,.75-18.3.51-23.82,0-32.84-4.51-19.31-4.51-22.57,2.51-31.08,2.51-31.08,1-7.27-6.27-7.52-21.56,1.25-21.56,1.25Z" style="fill:#263238;stroke:#263238;stroke-linecap:round;stroke-linejoin:round"></path><path d="M374.72,236s-6.75,13.5-7.25,18-2,28.5-2,32.5-5.75,56.75-5.75,56.75l22.25,4.5,4-8.25.25,7.75s1.25.25,8-.25,18.25-4.5,18.25-4.5L407,292.27s8-34,2-55.25c-1.32-4.67-16.46-17-16.46-17Z" style="fill:#fff;stroke:#263238;stroke-linecap:round;stroke-linejoin:round"></path><path d="M400.3,226.84c-4-3.68-7.79-6.79-7.79-6.79l-17.79,16s-6.75,13.5-7.25,18c-.32,2.91-1.07,14-1.55,22.52,5.31-9.24,21.51-37.11,26.3-41.27A74.59,74.59,0,0,0,400.3,226.84Z" style="fill:#fff;stroke:#263238;stroke-linecap:round;stroke-linejoin:round"></path><path d="M377.54,230.56l-3.78,2.68-.79,7.57,2.53-3.47s-5.05,8.51-5.37,12.61S367,268.24,367,268.24s9.15-19.87,10.56-23.34,16.24-22.07,16.24-22.07l-4.73-3.15Z" style="fill:#fff;stroke:#263238;stroke-linecap:round;stroke-linejoin:round"></path><path d="M356.59,199.75s-.78,9.37.26,10.41a28.39,28.39,0,0,1,2.34,2.86s-2.34,6.25-1.56,7a11.11,11.11,0,0,0,3.12,1.56s4.95,9.64,6.77,9.64,6.51-3.39,6.51-3.39l5.2,8.33,13.28-16.14-2.6-4.68s-.8-20.23-1.32-22.32-5.19-5-12.22-7.36-21.35,1-24.21,6.51S356.59,199.75,356.59,199.75Z" style="fill:#fff;stroke:#263238;stroke-linecap:round;stroke-linejoin:round"></path><path d="M376.37,185.69c-7-2.34-21.35,1-24.21,6.51s4.43,7.55,4.43,7.55.8.64,4.75-.49a27.82,27.82,0,0,0,5.26-1.88s-1.5,8.83-.38,9.21,7.52-1.32,7.52-1.32-.56,5.45,1.51,5.08,2.06-3.95,2.63-5.26,5.83-2.64,6,2.81-2.25,7.15-2.25,7.15a35.23,35.23,0,0,0,8.23-.7c-.17-4.11-.83-19.49-1.28-21.3C388.07,191,383.4,188,376.37,185.69Z" style="fill:#263238;stroke:#263238;stroke-linecap:round;stroke-linejoin:round"></path><path d="M358.7,211.1l7-1.32s1.69,3.2,1.13,5.08-3.57,2.63-4.89,2.26S358.7,211.1,358.7,211.1Z" style="fill:none;stroke:#263238;stroke-linecap:round;stroke-linejoin:round"></path><line x1="365.66" y1="209.78" x2="377.13" y2="207.15" style="fill:none;stroke:#263238;stroke-linecap:round;stroke-linejoin:round"></line><path d="M358.7,211.1l-3.76.75s1.7,4,3.2,4" style="fill:none;stroke:#263238;stroke-linecap:round;stroke-linejoin:round"></path><polygon points="374.03 227.86 380.13 222.57 376.19 230.23 374.03 227.86" style="fill:#263238;stroke:#263238;stroke-linecap:round;stroke-linejoin:round"></polygon><path d="M362.49,212.4l.41,1.84a6,6,0,0,0,2.77-1.23" style="fill:none;stroke:#263238;stroke-linecap:round;stroke-linejoin:round"></path><path d="M360.35,209.23a7.36,7.36,0,0,1,5.32-1.53" style="fill:none;stroke:#263238;stroke-linecap:round;stroke-linejoin:round"></path><polygon points="392.47 218.02 375.97 235.27 379.22 240.52 394.97 221.02 392.47 218.02" style="fill:#fff;stroke:#263238;stroke-linecap:round;stroke-linejoin:round"></polygon><path d="M347.5,280.3l-20.38-2.86c-1.48-.2-3.64.59-4,1.28s-4.93,7.88-4.73,8.56a1.16,1.16,0,0,0,1.18,1c.59,0,3.55-3.15,3.55-3.15l4.72-1.77s-4.92,2.95-3.94,3.44,2.07.1,3.25-.29,4.14-1.28,4.14-1.28a22.37,22.37,0,0,0,4,.59c1.58,0,4.23-1.87,4.23-1.87l8.37,1.47Z" style="fill:#fff;stroke:#263238;stroke-linecap:round;stroke-linejoin:round"></path><path d="M348.22,281s-16.75-1.75-17.75-1.75-7.75,5.25-8.5,6-2,4.25-2,4.25l2.25.25a6.89,6.89,0,0,0,3.5-.5c1.25-.75,7-2.25,7-2.25a7.27,7.27,0,0,0,3.5.75,22.36,22.36,0,0,0,5.75-1.25l7,1.5Z" style="fill:#fff;stroke:#263238;stroke-linecap:round;stroke-linejoin:round"></path><path d="M322.79,289.45s-.59-.59.39-1,6-3.45,7.19-3.74a27.68,27.68,0,0,1,3.05-.5" style="fill:none;stroke:#263238;stroke-linecap:round;stroke-linejoin:round"></path><path d="M319.93,289.06s1.38-3.15,3.65-4.14,7.09-3.25,7.09-3.25" style="fill:none;stroke:#263238;stroke-linecap:round;stroke-linejoin:round"></path><path d="M385.47,250l-6.75,31.75L347.47,279l-1.25,11.25L390.72,301s3.5-.5,4.25-3,11.5-46.25,11.5-46.25a12.76,12.76,0,0,0-7-12.75" style="fill:#fff;stroke:#263238;stroke-linecap:round;stroke-linejoin:round"></path></g><g id="freepik--Cable--inject-62"><rect x="246.72" y="251.5" width="10" height="5" style="fill:#fff;stroke:#263238;stroke-linecap:round;stroke-linejoin:round"></rect><path d="M257.09,253.88h2.25a6.24,6.24,0,0,1,6.24,6.24V378a7.24,7.24,0,0,0,7.25,7.25h0a7.24,7.24,0,0,0,7.25-7.25V296.23a4.58,4.58,0,0,1,4.58-4.58h9.93" style="fill:none;stroke:#263238;stroke-linecap:round;stroke-linejoin:round"></path><rect x="289.97" y="288.37" width="8.73" height="4.53" style="fill:#fff;stroke:#263238;stroke-linecap:round;stroke-linejoin:round"></rect></g><g id="freepik--device-2--inject-62"><rect x="294.41" y="260.04" width="2.05" height="32.23" transform="translate(-48.91 64.09) rotate(-11.44)" style="fill:#fff;stroke:#263238;stroke-linecap:round;stroke-linejoin:round"></rect><rect x="312.48" y="275.68" width="2.05" height="32.23" transform="translate(21.71 605.3) rotate(-90)" style="fill:#fff;stroke:#263238;stroke-linecap:round;stroke-linejoin:round"></rect></g><g id="freepik--device-1--inject-62"><rect x="42.2" y="59.03" width="201.41" height="373.12" style="fill:#fff"></rect><line x1="231.28" y1="101.45" x2="219.78" y2="101.45" style="fill:none;stroke:#263238;stroke-miterlimit:10"></line><line x1="231.28" y1="106.24" x2="219.78" y2="106.24" style="fill:none;stroke:#263238;stroke-miterlimit:10"></line><line x1="231.28" y1="111.03" x2="219.78" y2="111.03" style="fill:none;stroke:#263238;stroke-miterlimit:10"></line><path d="M58.81,122.14H230.69a2.69,2.69,0,0,1,2.69,2.69V354.27a2.69,2.69,0,0,1-2.69,2.69H58.81a2.7,2.7,0,0,1-2.7-2.7V124.83A2.69,2.69,0,0,1,58.81,122.14Z" style="fill:#7E57C2;stroke:#263238;stroke-linecap:round;stroke-linejoin:round"></path><polygon points="244.68 433.28 244.68 252.66 86.43 433.28 244.68 433.28" style="fill:#080808;opacity:0.15"></polygon><rect x="242.44" y="95.04" width="9.9" height="33.85" style="fill:#263238"></rect><rect x="242.44" y="134.62" width="9.9" height="33.85" style="fill:#263238"></rect><rect x="242.44" y="180.45" width="9.9" height="33.85" style="fill:#263238"></rect><path d="M233.15,40.05H56.36a16,16,0,0,0-16,16V431.61a16,16,0,0,0,16,16H233.15a16,16,0,0,0,16-16V56.09A16,16,0,0,0,233.15,40.05Zm6.75,383.41H49.61V67.73H239.9Z" style="fill:#263238"></path><polygon points="92.66 410.87 102.5 416.55 102.5 405.19 92.66 410.87" style="fill:none;stroke:#263238;stroke-miterlimit:10"></polygon><path d="M151,410.46a5.27,5.27,0,1,0-5.27,5.27A5.27,5.27,0,0,0,151,410.46Z" style="fill:none;stroke:#263238;stroke-miterlimit:10"></path><rect x="191.96" y="404.71" width="11.02" height="11.02" style="fill:none;stroke:#263238;stroke-miterlimit:10"></rect><rect x="217.65" y="71.42" width="15.78" height="8.65" style="fill:none;stroke:#263238;stroke-linecap:round;stroke-linejoin:round;stroke-width:0.821067px"></rect><rect x="217.65" y="71.42" width="12.3" height="8.65" style="fill:#263238;stroke:#263238;stroke-linecap:round;stroke-linejoin:round;stroke-width:0.725073px"></rect><rect x="233.39" y="73.84" width="2.22" height="3.81" style="fill:#263238;stroke:#263238;stroke-linecap:round;stroke-linejoin:round;stroke-width:0.725073px"></rect><rect x="53.89" y="74.11" width="2.89" height="4.96" style="fill:#263238;stroke:#263238;stroke-linecap:round;stroke-linejoin:round;stroke-width:0.8830859999999999px"></rect><rect x="58.44" y="72.36" width="2.89" height="6.7" style="fill:#263238;stroke:#263238;stroke-linecap:round;stroke-linejoin:round;stroke-width:0.8830859999999999px"></rect><rect x="62.99" y="70.31" width="2.89" height="8.76" style="fill:#263238;stroke:#263238;stroke-linecap:round;stroke-linejoin:round;stroke-width:0.8830859999999999px"></rect><path d="M171.35,172.18a2.59,2.59,0,0,0-3.11-1.14L158,174.7a22.44,22.44,0,0,0-12.61-7.3l-1.48-11.11a2.59,2.59,0,0,0-5.11-.12l-2,11.22a22.46,22.46,0,0,0-12.24,6.85l-10.64-4.39a2.58,2.58,0,0,0-2.66,4.36l8.77,7.45a22.42,22.42,0,0,0-1.38,7.76,22.16,22.16,0,0,0,.92,6.35l-8.93,6.87a2.58,2.58,0,0,0,2.45,4.48l10.44-3.73A22.43,22.43,0,0,0,136,211.28l1.41,10.59a2.58,2.58,0,0,0,5.1.12l1.89-10.36a22.37,22.37,0,0,0,13.46-7.27l9.58,3.95a2.58,2.58,0,0,0,2.66-4.36l-7.94-6.73a22.42,22.42,0,0,0,.14-15.21l8.42-6.48A2.6,2.6,0,0,0,171.35,172.18Zm-30.27,34.25a17,17,0,1,1,17-17A17,17,0,0,1,141.08,206.43Z" style="fill:#fff;stroke:#263238;stroke-linecap:round;stroke-linejoin:round"></path><path d="M173.34,217.1a1.18,1.18,0,0,0-1.43-.52l-4.67,1.67a10.27,10.27,0,0,0-5.76-3.34l-.68-5.07a1.18,1.18,0,0,0-2.33-.06l-.93,5.13A10.18,10.18,0,0,0,152,218l-4.87-2a1.19,1.19,0,0,0-1.22,2l4,3.4a10.27,10.27,0,0,0-.21,6.45L145.58,231a1.18,1.18,0,0,0,1.12,2l4.77-1.71a10.31,10.31,0,0,0,5.7,3.61l.64,4.84a1.18,1.18,0,0,0,2.33.05l.87-4.73a10.28,10.28,0,0,0,6.15-3.32l4.38,1.8a1.18,1.18,0,0,0,1.21-2l-3.63-3.08a10,10,0,0,0,.64-3.56,10.26,10.26,0,0,0-.57-3.39l3.84-3A1.2,1.2,0,0,0,173.34,217.1ZM159.5,232.75a7.78,7.78,0,1,1,7.77-7.77A7.77,7.77,0,0,1,159.5,232.75Z" style="fill:#fff;stroke:#263238;stroke-linecap:round;stroke-linejoin:round"></path><path d="M89.82,103c1.41,0,2.14.84,2.14,2.32v.29H90.58v-.38c0-.66-.26-.91-.72-.91s-.73.25-.73.91c0,1.9,2.84,2.26,2.84,4.9,0,1.48-.74,2.33-2.17,2.33s-2.16-.85-2.16-2.33v-.56H89v.66c0,.66.29.89.75.89s.76-.23.76-.89c0-1.91-2.84-2.26-2.84-4.91C87.68,103.86,88.4,103,89.82,103Z" style="fill:#263238"></path><path d="M94.07,109.31l-1.84-6.19h1.52l1.11,4.22L96,103.12h1.39l-1.84,6.19v3.06H94.07Z" style="fill:#263238"></path><path d="M99.81,103c1.41,0,2.14.84,2.14,2.32v.29h-1.38v-.38c0-.66-.26-.91-.73-.91s-.72.25-.72.91c0,1.9,2.84,2.26,2.84,4.9,0,1.48-.74,2.33-2.17,2.33s-2.17-.85-2.17-2.33v-.56H99v.66c0,.66.29.89.75.89s.76-.23.76-.89c0-1.91-2.85-2.26-2.85-4.91C97.66,103.86,98.39,103,99.81,103Z" style="fill:#263238"></path><path d="M102.37,103.12h4.49v1.33h-1.52v7.92h-1.45v-7.92h-1.52Z" style="fill:#263238"></path><path d="M109,107h2v1.32h-2v2.71h2.51v1.32h-4v-9.25h4v1.33H109Z" style="fill:#263238"></path><path d="M115.44,109.69l1-6.57h2v9.25h-1.38v-6.63l-1,6.63H114.7l-1.09-6.54v6.54h-1.27v-9.25h2Z" style="fill:#263238"></path><path d="M122.94,103.12v7.14c0,.66.29.9.75.9s.76-.24.76-.9v-7.14h1.37v7a2,2,0,0,1-2.17,2.32c-1.42,0-2.16-.84-2.16-2.32v-7Z" style="fill:#263238"></path><path d="M131.12,105.41v1.2c0,1.48-.71,2.29-2.17,2.29h-.69v3.47h-1.45v-9.25H129C130.41,103.12,131.12,103.93,131.12,105.41Zm-2.86-1v3.13H129c.46,0,.72-.21.72-.88v-1.38c0-.66-.26-.87-.72-.87Z" style="fill:#263238"></path><path d="M131.79,103.12h2.3c1.45,0,2.17.81,2.17,2.29v4.68c0,1.48-.72,2.28-2.17,2.28h-2.3Zm1.46,1.33v6.6h.81c.47,0,.75-.24.75-.9v-4.81c0-.66-.28-.89-.75-.89Z" style="fill:#263238"></path><path d="M141.87,112.37h-1.46l-.25-1.67h-1.79l-.25,1.67h-1.33l1.48-9.25h2.12Zm-3.31-2.93H140l-.7-4.68Z" style="fill:#263238"></path><path d="M141.62,103.12h4.5v1.33H144.6v7.92h-1.46v-7.92h-1.52Z" style="fill:#263238"></path><path d="M148.2,107h2v1.32h-2v2.71h2.51v1.32h-4v-9.25h4v1.33H148.2Z" style="fill:#263238"></path><path d="M197.15,342.69H89.57a7.22,7.22,0,0,1-7.22-7.22h0a7.22,7.22,0,0,1,7.22-7.22H197.15a7.22,7.22,0,0,1,7.22,7.22h0A7.22,7.22,0,0,1,197.15,342.69Z" style="fill:none;stroke:#263238;stroke-linecap:round;stroke-linejoin:round"></path><path d="M199.64,253.47H87.08a4.73,4.73,0,0,1-4.73-4.73h0A4.73,4.73,0,0,1,87.08,244H199.64a4.73,4.73,0,0,1,4.73,4.73h0A4.72,4.72,0,0,1,199.64,253.47Z" style="fill:#263238;stroke:#263238;stroke-linecap:round;stroke-linejoin:round"></path><path d="M175,244H87.08a4.73,4.73,0,0,0-4.73,4.73h0a4.73,4.73,0,0,0,4.73,4.73H175Z" style="fill:#fff;stroke:#263238;stroke-linecap:round;stroke-linejoin:round"></path><polyline points="76.87 107.61 58.94 107.61 65.92 114.58" style="fill:none;stroke:#263238;stroke-linejoin:round;stroke-width:2px"></polyline><line x1="58.94" y1="107.61" x2="66.41" y2="100.14" style="fill:none;stroke:#263238;stroke-linejoin:round;stroke-width:2px"></line><path d="M129.42,264.32v1.12c0,1.34-.67,2.11-2,2.11s-2-.77-2-2.11v-4.37c0-1.34.67-2.11,2-2.11s2,.77,2,2.11v.82h-1.25V261c0-.6-.26-.83-.68-.83s-.69.23-.69.83v4.53c0,.6.27.82.69.82s.68-.22.68-.82v-1.2Z" style="fill:#263238"></path><path d="M131.54,267.45h-1.32v-8.39h1.32v3.6H133v-3.6h1.34v8.39H133v-3.59h-1.5Z" style="fill:#263238"></path><path d="M136.67,262.6h1.81v1.2h-1.81v2.45h2.27v1.2h-3.59v-8.39h3.59v1.2h-2.27Z" style="fill:#263238"></path><path d="M143.59,264.32v1.12c0,1.34-.67,2.11-2,2.11a1.84,1.84,0,0,1-2-2.11v-4.37a1.84,1.84,0,0,1,2-2.11c1.3,0,2,.77,2,2.11v.82h-1.25V261c0-.6-.26-.83-.68-.83s-.69.23-.69.83v4.53c0,.6.27.82.69.82s.68-.22.68-.82v-1.2Z" style="fill:#263238"></path><path d="M146.12,264.11l-.41.77v2.57h-1.32v-8.39h1.32v3.66l1.73-3.66h1.32l-1.84,3.74,1.84,4.65H147.4Z" style="fill:#263238"></path><path d="M149.36,259.06h1.32v8.39h-1.32Z" style="fill:#263238"></path><path d="M152.82,261.37v6.08h-1.19v-8.39h1.66l1.35,5v-5h1.18v8.39h-1.36Z" style="fill:#263238"></path><path d="M158.74,262.78h1.85v2.66c0,1.34-.67,2.11-2,2.11s-2-.77-2-2.11v-4.37c0-1.34.67-2.11,2-2.11s2,.77,2,2.11v.82h-1.25V261c0-.6-.26-.83-.68-.83s-.68.23-.68.83v4.53c0,.6.26.82.68.82s.68-.22.68-.82V264h-.6Z" style="fill:#263238"></path><path d="M162.6,266.18v1.27h-1.27v-1.27Z" style="fill:#263238"></path><path d="M164.83,266.18v1.27h-1.27v-1.27Z" style="fill:#263238"></path><path d="M167.06,266.18v1.27h-1.27v-1.27Z" style="fill:#263238"></path><path d="M113.49,337.06V338c0,1.12-.56,1.76-1.64,1.76s-1.64-.64-1.64-1.76v-3.64a1.64,1.64,0,1,1,3.28,0V335h-1v-.74c0-.5-.22-.7-.57-.7s-.57.2-.57.7v3.77c0,.5.22.68.57.68s.57-.18.57-.68v-1Z" style="fill:#263238"></path><path d="M115.26,339.67h-1.1v-7h1.1v3h1.25v-3h1.12v7h-1.12v-3h-1.25Z" style="fill:#263238"></path><path d="M119.53,335.62H121v1h-1.51v2.05h1.9v1h-3v-7h3v1h-1.9Z" style="fill:#263238"></path><path d="M125.3,337.06V338c0,1.12-.56,1.76-1.64,1.76S122,339.11,122,338v-3.64a1.64,1.64,0,1,1,3.28,0V335h-1v-.74c0-.5-.22-.7-.57-.7s-.57.2-.57.7v3.77c0,.5.22.68.57.68s.57-.18.57-.68v-1Z" style="fill:#263238"></path><path d="M127.41,336.88l-.34.64v2.15H126v-7h1.1v3l1.44-3h1.1l-1.53,3.11,1.53,3.88h-1.13Z" style="fill:#263238"></path><path d="M130.11,332.68h1.1v7h-1.1Z" style="fill:#263238"></path><path d="M133,334.6v5.07h-1v-7h1.38l1.13,4.18v-4.18h1v7h-1.13Z" style="fill:#263238"></path><path d="M137.93,335.77h1.54V338c0,1.12-.56,1.76-1.64,1.76s-1.64-.64-1.64-1.76v-3.64a1.64,1.64,0,1,1,3.28,0V335h-1v-.74c0-.5-.22-.7-.57-.7s-.57.2-.57.7v3.77c0,.5.22.68.57.68s.57-.18.57-.68v-1.29h-.5Z" style="fill:#263238"></path><path d="M142.83,335.78h1.42v1h-1.42v2.89h-1.1v-7h2.91v1h-1.81Z" style="fill:#263238"></path><path d="M145.08,334.35a1.67,1.67,0,1,1,3.34,0V338a1.67,1.67,0,1,1-3.34,0Zm1.1,3.71c0,.5.22.69.57.69s.57-.19.57-.69v-3.77c0-.5-.22-.7-.57-.7s-.57.2-.57.7Z" style="fill:#263238"></path><path d="M151.43,339.67a2.15,2.15,0,0,1-.1-.86v-1.1c0-.65-.22-.89-.72-.89h-.38v2.85h-1.1v-7h1.66c1.14,0,1.63.53,1.63,1.61v.54a1.4,1.4,0,0,1-.72,1.42c.55.23.73.76.73,1.49v1.08a2.06,2.06,0,0,0,.12.85Zm-1.2-6v2.15h.43c.41,0,.66-.18.66-.74v-.69c0-.49-.17-.72-.56-.72Z" style="fill:#263238"></path><path d="M155.75,332.68v5.39c0,.5.22.68.57.68s.57-.18.57-.68v-5.39h1V338c0,1.12-.56,1.76-1.64,1.76s-1.64-.64-1.64-1.76v-5.32Z" style="fill:#263238"></path><path d="M161.94,334.4v.91c0,1.12-.54,1.73-1.64,1.73h-.52v2.63h-1.1v-7h1.62A1.5,1.5,0,0,1,161.94,334.4Zm-2.16-.73V336h.52c.35,0,.54-.16.54-.66v-1.05c0-.5-.19-.66-.54-.66Z" style="fill:#263238"></path><path d="M162.45,332.68h1.74a1.5,1.5,0,0,1,1.64,1.72v3.54c0,1.12-.54,1.73-1.64,1.73h-1.74Zm1.1,1v5h.62c.35,0,.56-.18.56-.68v-3.64c0-.49-.21-.68-.56-.68Z" style="fill:#263238"></path><path d="M170.08,339.67H169l-.19-1.27h-1.35l-.19,1.27h-1l1.12-7H169Zm-2.51-2.22h1.06l-.53-3.53Z" style="fill:#263238"></path><path d="M169.89,332.68h3.4v1h-1.15v6H171v-6h-1.15Z" style="fill:#263238"></path><path d="M174.87,335.62h1.51v1h-1.51v2.05h1.9v1h-3v-7h3v1h-1.9Z" style="fill:#263238"></path><path d="M178.93,332.6c1.07,0,1.62.64,1.62,1.75v.22h-1v-.28c0-.5-.2-.7-.55-.7s-.55.2-.55.7c0,1.43,2.15,1.7,2.15,3.7,0,1.12-.56,1.76-1.64,1.76s-1.64-.64-1.64-1.76v-.43h1v.5c0,.5.22.68.57.68s.57-.18.57-.68c0-1.44-2.15-1.71-2.15-3.71C177.31,333.24,177.86,332.6,178.93,332.6Z" style="fill:#263238"></path></g></svg>